Coordinates
version=1
nRows=36
nColumns=38
inDegrees=no

Units are S.I. units (second, meters, Newtons, ...)
If the header above contains a line with 'inDegrees', this indicates whether rotational values are in degrees (yes) or radians (no).

endheader
time	pelvis_tilt	pelvis_list	pelvis_rotation	pelvis_tx	pelvis_ty	pelvis_tz	hip_flexion_r	hip_adduction_r	hip_rotation_r	knee_angle_r	ankle_angle_r	subtalar_angle_r	mtp_angle_r	hip_flexion_l	hip_adduction_l	hip_rotation_l	knee_angle_l	ankle_angle_l	subtalar_angle_l	mtp_angle_l	lumbar_extension	lumbar_bending	lumbar_rotation	arm_flex_r	arm_add_r	arm_rot_r	elbow_flex_r	pro_sup_r	wrist_flex_r	wrist_dev_r	arm_flex_l	arm_add_l	arm_rot_l	elbow_flex_l	pro_sup_l	wrist_flex_l	wrist_dev_l
25	-0.471751	1.56028	1.94137	0.684208	0.56932	0.980868	0.00119515	-0.0446642	-0.0913556	0.169742	0.0948184	0	0	-0.0934294	0.00865461	-0.249409	0.0415238	0.0651863	0	0	0.0423184	-0.0656275	0.0373511	-0.2154	-0.107734	0.0341712	0.504015	1.32055	0	0	-0.136379	-0.220628	0.451831	0.654161	1.01501	0	0
25.01	-0.594406	1.56379	2.06524	0.683967	0.569971	0.980938	-0.00462354	-0.044183	-0.0911211	0.168002	0.0953013	0	0	-0.0993619	0.00868946	-0.24704	0.0389304	0.065171	0	0	0.0415773	-0.064033	0.0364425	-0.211708	-0.110041	0.0437305	0.499696	1.3136	0	0	-0.132642	-0.216947	0.457291	0.643163	1.01191	0	0
25.02	-1.07741	1.56724	2.55047	0.68367	0.570664	0.981063	-0.0117512	-0.0436215	-0.0905049	0.165145	0.095197	0	0	-0.106003	0.00872632	-0.243507	0.035976	0.0646707	0	0	0.0400058	-0.0627495	0.03575	-0.206511	-0.105366	0.0165673	0.488963	1.37169	0	0	-0.127262	-0.216104	0.475782	0.63436	0.978748	0	0
25.03	-2.14371	1.56761	-2.66432	0.683316	0.571296	0.981126	-0.0172119	-0.0435605	-0.0904568	0.163878	0.0958639	0	0	-0.111485	0.00901716	-0.240471	0.0336622	0.0646088	0	0	0.0391448	-0.0617066	0.0337774	-0.20315	-0.105319	0.0151279	0.485217	1.37422	0	0	-0.123728	-0.213324	0.484132	0.625029	0.968069	0	0
25.04	-2.58371	1.56569	-2.22221	0.682919	0.571878	0.981151	-0.0211424	-0.0440603	-0.0907882	0.163728	0.0970606	0	0	-0.115735	0.00968819	-0.237858	0.0319232	0.06486	0	0	0.0390901	-0.0610958	0.0307343	-0.200386	-0.107423	0.0267184	0.483963	1.35334	0	0	-0.122213	-0.207815	0.478224	0.614732	0.988837	0	0
25.05	-2.72005	1.56357	-2.08368	0.682511	0.572423	0.981168	-0.0243429	-0.0448035	-0.0912856	0.164122	0.098279	0	0	-0.119756	0.0105513	-0.235017	0.0297277	0.0647336	0	0	0.0391695	-0.0607203	0.0285531	-0.197636	-0.106372	0.0222682	0.481438	1.35665	0	0	-0.119804	-0.20455	0.48289	0.607573	0.980901	0	0
25.06	-2.77867	1.56188	-2.02333	0.682077	0.572917	0.981152	-0.0264602	-0.0456117	-0.0919873	0.165227	0.0994761	0	0	-0.123497	0.0114479	-0.232063	0.0268889	0.0642385	0	0	0.0395659	-0.0600493	0.0270408	-0.19516	-0.105281	0.0174408	0.479555	1.35844	0	0	-0.117533	-0.201202	0.488226	0.60022	0.971975	0	0
25.07	-2.80589	1.56072	-1.99479	0.681621	0.573404	0.981106	-0.0278549	-0.0463711	-0.0926605	0.166382	0.10034	0	0	-0.126722	0.0123223	-0.229516	0.0239309	0.0635258	0	0	0.0405891	-0.0590796	0.0261355	-0.193115	-0.104391	0.0131598	0.478342	1.35833	0	0	-0.115631	-0.197985	0.494805	0.593201	0.962546	0	0
25.08	-2.81635	1.55982	-1.98224	0.681101	0.573822	0.981078	-0.0289552	-0.0471082	-0.0939774	0.167543	0.101156	0	0	-0.128587	0.0128548	-0.228028	0.0227931	0.0635599	0	0	0.0414564	-0.0582217	0.0243419	-0.191167	-0.10335	0.00937275	0.477975	1.35746	0	0	-0.113948	-0.194924	0.50076	0.58763	0.954773	0	0
25.09	-2.7958	1.55944	-2.00031	0.680562	0.574137	0.981058	-0.0292615	-0.0480017	-0.0962626	0.16889	0.10215	0	0	-0.129039	0.0133436	-0.226958	0.0227076	0.0640115	0	0	0.0426961	-0.0575894	0.0219008	-0.18904	-0.102049	0.00541463	0.477989	1.3569	0	0	-0.112663	-0.192058	0.505989	0.583546	0.947261	0	0
25.1	-2.76077	1.55947	-2.03268	0.680018	0.574451	0.981038	-0.0295558	-0.0488156	-0.0984244	0.169413	0.102767	0	0	-0.128743	0.0137738	-0.226088	0.0229933	0.0644839	0	0	0.0440993	-0.05695	0.0192052	-0.187246	-0.100517	0.00143729	0.478776	1.35601	0	0	-0.112056	-0.189385	0.509986	0.580504	0.940988	0	0
25.11	-2.74012	1.55963	-2.05069	0.679487	0.57479	0.981025	-0.03021	-0.0493017	-0.100281	0.169084	0.102839	0	0	-0.128403	0.0139879	-0.225253	0.0232829	0.0648168	0	0	0.0453792	-0.0561277	0.0165716	-0.185904	-0.0988715	-0.00176382	0.480336	1.35457	0	0	-0.111743	-0.187141	0.514013	0.578794	0.936172	0	0
25.12	-2.75311	1.55973	-2.03567	0.678932	0.575082	0.981043	-0.0310191	-0.0495626	-0.101819	0.168562	0.10262	0	0	-0.128205	0.01399	-0.225138	0.0238487	0.0652232	0	0	0.0464077	-0.0548589	0.0147853	-0.184766	-0.0976943	-0.00399492	0.482004	1.35318	0	0	-0.111079	-0.185175	0.519963	0.577778	0.93154	0	0
25.13	-2.75151	1.56004	-2.03569	0.678401	0.575362	0.981042	-0.031757	-0.0498612	-0.103303	0.1675	0.102397	0	0	-0.127801	0.014101	-0.225226	0.0243345	0.0656256	0	0	0.0476648	-0.0536072	0.0136476	-0.183941	-0.0966379	-0.00526094	0.484231	1.35155	0	0	-0.110481	-0.183623	0.526564	0.577555	0.929126	0	0
25.14	-2.74443	1.56048	-2.04159	0.677905	0.575632	0.981039	-0.0323624	-0.050137	-0.104361	0.166292	0.102145	0	0	-0.127449	0.0142869	-0.225311	0.0244652	0.0658913	0	0	0.0488527	-0.0522332	0.0127454	-0.183444	-0.0961539	-0.00319576	0.487751	1.34546	0	0	-0.11038	-0.181771	0.529434	0.577377	0.937204	0	0
25.15	-2.7192	1.56103	-2.06606	0.677466	0.575876	0.981016	-0.03232	-0.0505611	-0.104896	0.165805	0.1021	0	0	-0.12696	0.014589	-0.225283	0.0245043	0.066228	0	0	0.0501433	-0.0509698	0.0123225	-0.182576	-0.094823	-0.00457787	0.490123	1.349	0	0	-0.110191	-0.181131	0.535252	0.578289	0.934099	0	0
25.16	-2.68922	1.56164	-2.09581	0.67709	0.576091	0.98097	-0.0317229	-0.0509777	-0.105085	0.166036	0.102269	0	0	-0.126442	0.0148511	-0.225356	0.024564	0.0665511	0	0	0.0514238	-0.0496907	0.0121381	-0.181658	-0.0937566	-0.00341197	0.492735	1.34866	0	0	-0.110493	-0.18063	0.538624	0.579311	0.938058	0	0
25.17	-2.62176	1.56242	-2.16326	0.676745	0.576251	0.980873	-0.0303416	-0.051575	-0.105508	0.166945	0.102823	0	0	-0.125499	0.0152513	-0.225363	0.0246794	0.0670186	0	0	0.0529114	-0.0485906	0.0122575	-0.180778	-0.0926235	-0.00166896	0.495363	1.34873	0	0	-0.111015	-0.180583	0.541554	0.580881	0.942513	0	0
25.18	-2.52764	1.56327	-2.25731	0.67639	0.576376	0.980744	-0.0286387	-0.0521952	-0.106259	0.168073	0.103755	0	0	-0.124369	0.0156591	-0.225292	0.0247333	0.0674778	0	0	0.0543104	-0.0474787	0.0124672	-0.179953	-0.0913981	0.00010723	0.498102	1.349	0	0	-0.111662	-0.180661	0.542969	0.582705	0.946688	0	0
25.19	-2.44873	1.56382	-2.33615	0.676024	0.57655	0.980629	-0.0276	-0.052788	-0.106886	0.168894	0.104543	0	0	-0.123837	0.0161101	-0.22475	0.0244905	0.0678233	0	0	0.0553499	-0.0462814	0.0127944	-0.179406	-0.0900573	0.00139679	0.501019	1.34961	0	0	-0.112256	-0.180598	0.543073	0.583951	0.950397	0	0
25.2	-2.33212	1.56425	-2.45282	0.675649	0.576712	0.980515	-0.0261195	-0.0536644	-0.107897	0.170297	0.105527	0	0	-0.123281	0.0168561	-0.223994	0.0240909	0.0678923	0	0	0.0566731	-0.0452202	0.0131945	-0.178795	-0.0885002	0.00189104	0.503431	1.35112	0	0	-0.112713	-0.18075	0.543504	0.584512	0.953001	0	0
25.21	-2.11936	1.5647	-2.6664	0.6753	0.576787	0.980364	-0.0229991	-0.0550076	-0.109746	0.173476	0.107054	0	0	-0.122232	0.0179452	-0.223563	0.0235048	0.0677121	0	0	0.0583983	-0.0442337	0.0143029	-0.177486	-0.0870471	0.00245998	0.504367	1.35387	0	0	-0.113234	-0.181001	0.54331	0.585364	0.954824	0	0
25.22	-1.99519	1.5647	-2.79086	0.674963	0.576951	0.980236	-0.0213401	-0.0560176	-0.110781	0.175626	0.108493	0	0	-0.122366	0.0189199	-0.222689	0.0221885	0.0673756	0	0	0.0594348	-0.0434331	0.0149021	-0.175853	-0.0855884	0.00366307	0.504102	1.35748	0	0	-0.113853	-0.182011	0.543574	0.587323	0.956078	0	0
25.23	-2.03752	1.56457	-2.74796	0.674616	0.57722	0.980192	-0.0219363	-0.0563604	-0.11068	0.175975	0.108939	0	0	-0.123975	0.0194915	-0.221153	0.0201639	0.0668134	0	0	0.0595236	-0.0425556	0.0145371	-0.173941	-0.0841261	0.00563155	0.502639	1.36204	0	0	-0.114501	-0.183698	0.545721	0.589283	0.954718	0	0
25.24	-2.14762	1.56475	-2.63756	0.6742	0.577491	0.980196	-0.0228639	-0.0563074	-0.110401	0.175918	0.108823	0	0	-0.126515	0.0199024	-0.218855	0.0166523	0.065176	0	0	0.0593641	-0.0407946	0.0148431	-0.171168	-0.0811381	-0.00410757	0.498152	1.39184	0	0	-0.113992	-0.186456	0.557663	0.591125	0.934042	0	0
25.25	-2.21613	1.56478	-2.56841	0.673773	0.577764	0.980184	-0.023833	-0.0564488	-0.109786	0.17535	0.10881	0	0	-0.128348	0.0203641	-0.217221	0.0142165	0.0642616	0	0	0.0594361	-0.0394337	0.0140678	-0.169351	-0.0801225	-0.00322181	0.496562	1.39464	0	0	-0.114101	-0.187471	0.560144	0.59123	0.934222	0	0
25.26	-2.29458	1.56455	-2.48874	0.673322	0.57808	0.980184	-0.0255811	-0.0566403	-0.109288	0.174192	0.10861	0	0	-0.130178	0.0208143	-0.215638	0.0122511	0.0637921	0	0	0.0594181	-0.0384571	0.0124594	-0.168402	-0.0804034	0.00418106	0.496712	1.38355	0	0	-0.114243	-0.188113	0.559718	0.591624	0.939784	0	0
25.27	-2.20578	1.56509	-2.57705	0.672948	0.578257	0.980099	-0.0247255	-0.0570672	-0.110591	0.174798	0.109101	0	0	-0.130028	0.02111	-0.21484	0.0112429	0.063762	0	0	0.060545	-0.037349	0.0116451	-0.166979	-0.0796427	0.00407697	0.495278	1.3862	0	0	-0.114237	-0.189083	0.562193	0.591848	0.939369	0	0
25.28	-1.97346	1.56584	-2.80927	0.672629	0.578334	0.979967	-0.0221656	-0.0576734	-0.113272	0.176943	0.110084	0	0	-0.128819	0.0213652	-0.214336	0.0106373	0.0637009	0	0	0.0623195	-0.0363245	0.0112578	-0.165591	-0.0790614	0.00304198	0.493644	1.389	0	0	-0.113816	-0.190104	0.565774	0.590901	0.93987	0	0
25.29	-2.1471	1.56546	-2.63327	0.672211	0.578665	0.980014	-0.0249475	-0.0575978	-0.113378	0.17514	0.10962	0	0	-0.130748	0.0215007	-0.212004	0.00922883	0.0632039	0	0	0.0617493	-0.0358894	0.00922979	-0.16437	-0.0771304	-0.00493049	0.490835	1.40044	0	0	-0.112225	-0.192871	0.576532	0.590667	0.935571	0	0
25.3	-2.31678	1.56489	-2.4613	0.671801	0.578934	0.980086	-0.0276198	-0.0575236	-0.113924	0.173795	0.109507	0	0	-0.132428	0.02153	-0.210198	0.00861018	0.0630773	0	0	0.0607867	-0.0354449	0.00692502	-0.163651	-0.0768564	-0.0054422	0.489822	1.39762	0	0	-0.111129	-0.194611	0.582654	0.59036	0.934729	0	0
25.31	-2.34661	1.56477	-2.43002	0.671431	0.57911	0.980097	-0.0282117	-0.0577556	-0.114997	0.173916	0.109624	0	0	-0.132724	0.0216351	-0.20917	0.00866092	0.0632319	0	0	0.0606239	-0.0349759	0.005373	-0.163051	-0.0768651	-0.00689915	0.488859	1.39668	0	0	-0.110142	-0.195102	0.583949	0.589266	0.942602	0	0
25.32	-2.33725	1.56493	-2.43824	0.671058	0.579259	0.980084	-0.0282221	-0.0580093	-0.115748	0.173992	0.10964	0	0	-0.132574	0.0217272	-0.208331	0.00875062	0.0632727	0	0	0.0608198	-0.0342746	0.00445393	-0.162794	-0.0770391	-0.00978445	0.488136	1.3947	0	0	-0.10894	-0.196245	0.590706	0.587618	0.941845	0	0
25.33	-2.32626	1.56514	-2.44819	0.670706	0.579414	0.980063	-0.0278552	-0.0582872	-0.116993	0.1749	0.110043	0	0	-0.132398	0.0217759	-0.207519	0.00885284	0.0633309	0	0	0.061011	-0.0335211	0.0036814	-0.162796	-0.0773626	-0.0127636	0.487816	1.39069	0	0	-0.107632	-0.197403	0.598382	0.58592	0.939583	0	0
25.34	-2.33124	1.56511	-2.44218	0.670395	0.579553	0.980052	-0.0278088	-0.0586223	-0.118011	0.175723	0.110255	0	0	-0.132525	0.021897	-0.206377	0.008849	0.0634463	0	0	0.0608534	-0.0331122	0.00301481	-0.163024	-0.077773	-0.0160762	0.487486	1.38544	0	0	-0.105972	-0.198488	0.605097	0.584934	0.937577	0	0
25.35	-2.35155	1.56503	-2.42096	0.670114	0.579677	0.980056	-0.0279919	-0.0588826	-0.118955	0.176401	0.110706	0	0	-0.132864	0.0220201	-0.205082	0.00862118	0.0635828	0	0	0.060506	-0.0327105	0.00250451	-0.163403	-0.0783693	-0.0198565	0.487091	1.37998	0	0	-0.104528	-0.199297	0.61074	0.583968	0.935526	0	0
